<svg width="500" height="373" viewBox="0 0 500 373" fill="none" xmlns="http://www.w3.org/2000/svg">
<g clip-path="url(#clip0_45_202)">
<path d="M449.9 343.54H416.78V343.79H449.9V343.54Z" fill="#EBEBEB"/>
<path d="M331.22 346.26H322.53V346.51H331.22V346.26Z" fill="#EBEBEB"/>
<path d="M415.78 334.26H396.59V334.51H415.78V334.26Z" fill="#EBEBEB"/>
<path d="M95.65 335.94H52.46V336.19H95.65V335.94Z" fill="#EBEBEB"/>
<path d="M110.89 335.94H104.56V336.19H110.89V335.94Z" fill="#EBEBEB"/>
<path d="M225.15 340.16H131.47V340.41H225.15V340.16Z" fill="#EBEBEB"/>
<path d="M238.4 282.85H45.2998C43.7855 282.85 42.3331 282.248 41.2623 281.178C40.1914 280.107 39.5898 278.654 39.5898 277.14V5.71C39.603 4.2043 40.2104 2.76475 41.2798 1.70471C42.3492 0.644665 43.7941 0.0499453 45.2998 0.0500031H238.4C239.15 0.0500031 239.892 0.197695 240.585 0.48465C241.278 0.771604 241.907 1.1922 242.437 1.72242C242.968 2.25265 243.388 2.88211 243.675 3.57488C243.962 4.26765 244.11 5.01015 244.11 5.76V277.14C244.11 277.89 243.962 278.632 243.675 279.325C243.388 280.018 242.968 280.647 242.437 281.178C241.907 281.708 241.278 282.128 240.585 282.415C239.892 282.702 239.15 282.85 238.4 282.85ZM45.2998 0.250004C43.8526 0.252647 42.4653 0.828743 41.442 1.85212C40.4186 2.8755 39.8425 4.26273 39.8398 5.71V277.14C39.8425 278.587 40.4186 279.975 41.442 280.998C42.4653 282.021 43.8526 282.597 45.2998 282.6H238.4C239.847 282.597 241.234 282.021 242.258 280.998C243.281 279.975 243.857 278.587 243.86 277.14V5.71C243.857 4.26273 243.281 2.8755 242.258 1.85212C241.234 0.828743 239.847 0.252647 238.4 0.250004H45.2998Z" fill="#EBEBEB"/>
<path d="M454.7 282.85H261.6C260.086 282.85 258.633 282.248 257.563 281.178C256.492 280.107 255.89 278.654 255.89 277.14V5.71C255.903 4.2043 256.511 2.76475 257.58 1.70471C258.65 0.644665 260.094 0.0499453 261.6 0.0500031H454.7C456.215 0.0500031 457.667 0.651591 458.738 1.72242C459.809 2.79326 460.41 4.24562 460.41 5.76V277.14C460.41 278.654 459.809 280.107 458.738 281.178C457.667 282.248 456.215 282.85 454.7 282.85ZM261.6 0.250004C260.153 0.252647 258.766 0.828743 257.742 1.85212C256.719 2.8755 256.143 4.26273 256.14 5.71V277.14C256.143 278.587 256.719 279.975 257.742 280.998C258.766 282.021 260.153 282.597 261.6 282.6H454.7C456.147 282.597 457.535 282.021 458.558 280.998C459.581 279.975 460.158 278.587 460.16 277.14V5.71C460.158 4.26273 459.581 2.8755 458.558 1.85212C457.535 0.828743 456.147 0.252647 454.7 0.250004H261.6Z" fill="#EBEBEB"/>
<path d="M500 327.45H0V327.7H500V327.45Z" fill="#EBEBEB"/>
<path d="M119.33 259.8C118.49 250.14 108.63 246.53 96.9398 247.55C85.2498 248.57 76.1798 253.84 76.9998 263.5L119.33 259.8Z" fill="#F0F0F0"/>
<path d="M96.5599 243.14C101.98 242.66 103.71 238.08 103.24 232.66C102.77 227.24 100.24 223.03 94.8399 223.5C89.4399 223.97 87.6899 228.56 88.1599 233.98C88.6299 239.4 91.1399 243.61 96.5599 243.14Z" fill="#F0F0F0"/>
<path d="M340.1 54.05C340.195 55.1221 339.97 56.1982 339.453 57.1423C338.936 58.0863 338.15 58.8558 337.196 59.3534C336.242 59.8509 335.161 60.0542 334.091 59.9375C333.021 59.8208 332.01 59.3893 331.185 58.6976C330.361 58.006 329.76 57.0853 329.459 56.052C329.157 55.0187 329.169 53.9193 329.493 52.8929C329.817 51.8665 330.438 50.9592 331.278 50.2858C332.117 49.6124 333.138 49.2032 334.21 49.11C335.646 48.9852 337.073 49.4353 338.177 50.3615C339.281 51.2877 339.973 52.6143 340.1 54.05Z" fill="#F5F5F5"/>
<path d="M370.17 51.39C370.263 52.4599 370.037 53.5333 369.519 54.4745C369.002 55.4157 368.218 56.1824 367.265 56.6777C366.312 57.1729 365.234 57.3745 364.166 57.2569C363.099 57.1394 362.09 56.7079 361.268 56.0171C360.445 55.3263 359.847 54.4072 359.547 53.376C359.247 52.3448 359.259 51.2478 359.583 50.2238C359.906 49.1998 360.526 48.2946 361.364 47.6229C362.202 46.9512 363.22 46.543 364.29 46.45C365.724 46.3279 367.149 46.7793 368.251 47.7052C369.353 48.6312 370.043 49.9562 370.17 51.39Z" fill="#F5F5F5"/>
<path d="M400.25 48.76C400.345 49.8321 400.12 50.9083 399.603 51.8523C399.086 52.7963 398.3 53.5658 397.346 54.0634C396.392 54.5609 395.311 54.7642 394.241 54.6475C393.171 54.5308 392.16 54.0993 391.335 53.4076C390.511 52.716 389.91 51.7953 389.608 50.762C389.307 49.7287 389.319 48.6293 389.643 47.6029C389.967 46.5765 390.588 45.6692 391.428 44.9958C392.267 44.3224 393.288 43.9132 394.36 43.82C395.796 43.6952 397.223 44.1453 398.327 45.0715C399.431 45.9977 400.123 47.3243 400.25 48.76Z" fill="#F5F5F5"/>
<path d="M342.78 84.67C342.875 85.7421 342.65 86.8183 342.133 87.7623C341.616 88.7063 340.831 89.4758 339.876 89.9734C338.922 90.4709 337.841 90.6742 336.771 90.5575C335.702 90.4408 334.69 90.0093 333.866 89.3176C333.041 88.626 332.44 87.7053 332.139 86.672C331.838 85.6387 331.85 84.5393 332.173 83.5129C332.497 82.4865 333.118 81.5792 333.958 80.9058C334.797 80.2324 335.818 79.8232 336.89 79.73C338.326 79.6052 339.753 80.0553 340.857 80.9815C341.962 81.9077 342.653 83.2343 342.78 84.67Z" fill="#F5F5F5"/>
<path d="M372.85 82.05C372.943 83.1199 372.716 84.1933 372.199 85.1345C371.682 86.0757 370.897 86.8424 369.944 87.3377C368.992 87.8329 367.913 88.0345 366.846 87.9169C365.778 87.7994 364.77 87.3679 363.947 86.6771C363.125 85.9863 362.526 85.0672 362.226 84.036C361.926 83.0048 361.939 81.9078 362.263 80.8838C362.586 79.8598 363.206 78.9546 364.044 78.2829C364.882 77.6112 365.9 77.203 366.97 77.11C367.68 77.0482 368.396 77.127 369.076 77.3418C369.756 77.5567 370.387 77.9034 370.933 78.3621C371.479 78.8208 371.929 79.3826 372.258 80.0154C372.587 80.6482 372.788 81.3395 372.85 82.05Z" fill="#F5F5F5"/>
<path d="M402.93 79.41C403.025 80.4821 402.8 81.5582 402.283 82.5023C401.766 83.4463 400.981 84.2158 400.026 84.7133C399.072 85.2109 397.991 85.4142 396.921 85.2975C395.851 85.1807 394.84 84.7493 394.015 84.0576C393.191 83.366 392.59 82.4453 392.289 81.412C391.987 80.3787 392 79.2793 392.323 78.2529C392.647 77.2265 393.268 76.3192 394.108 75.6458C394.947 74.9724 395.968 74.5632 397.04 74.47C398.476 74.3452 399.903 74.7953 401.007 75.7215C402.111 76.6477 402.803 77.9743 402.93 79.41Z" fill="#F5F5F5"/>
<path d="M345.46 115.33C345.553 116.4 345.326 117.473 344.809 118.414C344.292 119.356 343.507 120.122 342.554 120.618C341.601 121.113 340.523 121.315 339.456 121.197C338.388 121.079 337.379 120.648 336.557 119.957C335.735 119.266 335.136 118.347 334.836 117.316C334.536 116.285 334.549 115.188 334.872 114.164C335.196 113.14 335.816 112.235 336.654 111.563C337.492 110.891 338.51 110.483 339.58 110.39C340.29 110.327 341.007 110.405 341.687 110.619C342.368 110.833 342.999 111.18 343.546 111.639C344.092 112.098 344.542 112.66 344.871 113.294C345.199 113.927 345.399 114.619 345.46 115.33Z" fill="#F5F5F5"/>
<path d="M375.54 112.69C375.635 113.762 375.41 114.838 374.893 115.782C374.376 116.726 373.59 117.496 372.636 117.993C371.682 118.491 370.601 118.694 369.531 118.577C368.461 118.461 367.45 118.029 366.625 117.338C365.801 116.646 365.2 115.725 364.899 114.692C364.597 113.659 364.609 112.559 364.933 111.533C365.257 110.506 365.878 109.599 366.718 108.926C367.557 108.252 368.578 107.843 369.65 107.75C371.086 107.625 372.513 108.075 373.617 109.001C374.721 109.928 375.413 111.254 375.54 112.69Z" fill="#F5F5F5"/>
<path d="M405.61 110.05C405.705 111.122 405.479 112.198 404.962 113.142C404.446 114.086 403.66 114.856 402.706 115.353C401.751 115.851 400.671 116.054 399.601 115.937C398.531 115.821 397.52 115.389 396.695 114.698C395.871 114.006 395.27 113.085 394.968 112.052C394.667 111.019 394.679 109.919 395.003 108.893C395.327 107.866 395.948 106.959 396.787 106.286C397.627 105.612 398.648 105.203 399.72 105.11C401.156 104.985 402.582 105.435 403.687 106.361C404.791 107.288 405.483 108.614 405.61 110.05Z" fill="#F5F5F5"/>
<path d="M399.11 111.83L337.33 117.23L392.11 50.67L336 55.58C335.844 55.5951 335.685 55.5787 335.535 55.5317C335.385 55.4848 335.246 55.4083 335.126 55.3068C335.005 55.2052 334.907 55.0806 334.835 54.9403C334.764 54.8001 334.721 54.647 334.71 54.49C334.682 54.1757 334.781 53.8633 334.983 53.6214C335.186 53.3795 335.476 53.2279 335.79 53.2L397.58 47.8L342.79 114.36L398.92 109.45C399.237 109.425 399.55 109.525 399.793 109.729C400.036 109.933 400.19 110.224 400.22 110.54C400.232 110.698 400.213 110.856 400.164 111.007C400.115 111.157 400.037 111.296 399.933 111.416C399.83 111.536 399.704 111.634 399.563 111.705C399.422 111.776 399.268 111.819 399.11 111.83Z" fill="#E6E6E6"/>
<path d="M400.06 230.66C399.965 230.369 399.786 230.112 399.546 229.922C399.306 229.731 399.015 229.616 398.71 229.59C396.024 229.466 393.481 228.343 391.58 226.44C389.11 223.95 387.66 220.18 387.42 215.7C387.397 215.296 387.221 214.916 386.927 214.637C386.634 214.358 386.245 214.202 385.84 214.2C385.621 214.201 385.405 214.246 385.204 214.333C385.003 214.42 384.822 214.547 384.672 214.706C384.521 214.865 384.405 215.053 384.329 215.258C384.253 215.463 384.219 215.681 384.23 215.9C384.51 221.16 386.29 225.66 389.32 228.69C391.693 231.067 394.841 232.511 398.19 232.76H398.42C398.683 232.78 398.947 232.735 399.188 232.628C399.429 232.522 399.64 232.357 399.803 232.149C399.965 231.942 400.073 231.697 400.118 231.437C400.163 231.177 400.143 230.91 400.06 230.66Z" fill="#F0F0F0"/>
<path d="M396.86 249.85C383.61 248.69 374.05 239.66 371.03 225.56C370.982 225.348 370.977 225.129 371.016 224.915C371.055 224.702 371.137 224.498 371.256 224.317C371.376 224.136 371.531 223.981 371.712 223.861C371.893 223.741 372.097 223.659 372.31 223.62C372.715 223.548 373.132 223.635 373.474 223.862C373.817 224.089 374.059 224.439 374.15 224.84C376.86 237.51 385.36 245.63 397.15 246.66C410.07 247.79 423.94 239.29 426.43 217.87C426.473 217.452 426.679 217.068 427.002 216.801C427.326 216.533 427.742 216.404 428.16 216.44C428.372 216.457 428.578 216.517 428.767 216.616C428.955 216.714 429.122 216.85 429.257 217.014C429.392 217.178 429.493 217.367 429.554 217.571C429.614 217.775 429.634 217.989 429.61 218.2C427.22 238.4 413.94 251.34 396.86 249.85Z" fill="#F0F0F0"/>
<path d="M371.86 211.51C371.648 211.493 371.442 211.433 371.254 211.334C371.065 211.236 370.898 211.1 370.763 210.936C370.628 210.772 370.527 210.583 370.466 210.379C370.406 210.175 370.387 209.961 370.41 209.75C372.79 189.55 386.07 176.6 403.14 178.1C418.14 179.41 428.19 190.61 429.76 207.48C429.776 207.692 429.75 207.905 429.683 208.106C429.617 208.308 429.51 208.494 429.371 208.654C429.231 208.815 429.061 208.945 428.87 209.039C428.68 209.133 428.472 209.187 428.26 209.2C427.843 209.219 427.434 209.076 427.121 208.8C426.807 208.524 426.613 208.136 426.58 207.72C425.13 192.52 416.16 182.45 402.87 181.29C390 180.16 376.07 188.65 373.59 210.05C373.572 210.259 373.514 210.463 373.417 210.65C373.321 210.837 373.188 211.003 373.028 211.139C372.867 211.274 372.681 211.377 372.481 211.44C372.28 211.504 372.07 211.528 371.86 211.51Z" fill="#F0F0F0"/>
<path d="M397.51 241.28C395.134 241.089 392.806 240.508 390.62 239.56C390.416 239.471 390.233 239.34 390.082 239.176C389.931 239.013 389.816 238.819 389.744 238.609C389.671 238.398 389.643 238.175 389.662 237.953C389.68 237.731 389.744 237.516 389.85 237.32C390.037 236.976 390.346 236.714 390.715 236.585C391.085 236.456 391.489 236.468 391.85 236.62C393.935 237.516 396.163 238.03 398.43 238.14C408.22 238.7 418.56 231.76 419.58 215C420.2 204.67 416.66 196.33 410.06 192.34C409.718 192.133 409.466 191.806 409.353 191.423C409.24 191.04 409.275 190.629 409.45 190.27C409.549 190.072 409.688 189.896 409.859 189.753C410.029 189.611 410.227 189.505 410.439 189.442C410.652 189.38 410.876 189.361 411.096 189.388C411.316 189.415 411.529 189.487 411.72 189.6C419.37 194.22 423.47 203.6 422.77 215.19C421.77 231.35 411.71 242.11 398.24 241.34L397.51 241.28Z" fill="#F0F0F0"/>
<path d="M383.27 231.31C383.086 231.435 382.878 231.52 382.66 231.561C382.441 231.602 382.217 231.597 382 231.547C381.783 231.498 381.579 231.404 381.4 231.272C381.221 231.14 381.072 230.972 380.96 230.78C377.996 225.269 376.693 219.016 377.21 212.78C378.15 197.31 387.42 186.78 400.01 186.6C400.232 186.596 400.452 186.637 400.657 186.722C400.862 186.806 401.047 186.932 401.201 187.092C401.355 187.251 401.475 187.441 401.552 187.649C401.629 187.857 401.663 188.079 401.65 188.3C401.625 188.7 401.451 189.076 401.162 189.354C400.873 189.632 400.491 189.791 400.09 189.8C390.75 189.98 381.37 197.04 380.41 212.97C379.925 218.599 381.085 224.248 383.75 229.23C383.951 229.576 384.013 229.985 383.924 230.374C383.834 230.764 383.601 231.106 383.27 231.33V231.31Z" fill="#F0F0F0"/>
<path d="M405.13 230.05C404.978 229.694 404.961 229.296 405.08 228.928C405.2 228.561 405.448 228.249 405.78 228.05C409.99 225.52 412.57 220.21 412.61 213.8C412.61 208.67 411.16 204.33 408.42 201.58C407.356 200.526 406.088 199.7 404.693 199.153C403.299 198.606 401.807 198.35 400.31 198.4C395.38 198.4 391.38 201.11 389.17 205.87C389 206.232 388.699 206.516 388.328 206.666C387.958 206.816 387.544 206.821 387.17 206.68C386.961 206.603 386.771 206.483 386.611 206.329C386.451 206.174 386.325 205.988 386.24 205.782C386.155 205.576 386.114 205.355 386.12 205.133C386.125 204.911 386.176 204.692 386.27 204.49C389.01 198.66 394.14 195.21 400.27 195.2C402.19 195.15 404.1 195.49 405.886 196.198C407.672 196.906 409.295 197.968 410.66 199.32C414.01 202.68 415.83 207.83 415.79 213.83C415.73 221.38 412.55 227.72 407.37 230.83C407.174 230.937 406.957 231.002 406.735 231.02C406.512 231.039 406.288 231.01 406.077 230.937C405.866 230.863 405.673 230.746 405.51 230.594C405.346 230.441 405.217 230.256 405.13 230.05Z" fill="#F0F0F0"/>
<path d="M393.61 218.24C393.396 218.327 393.167 218.367 392.936 218.357C392.706 218.347 392.48 218.287 392.275 218.181C392.07 218.076 391.89 217.927 391.747 217.746C391.605 217.564 391.504 217.354 391.45 217.13C391.34 216.7 391.26 216.25 391.19 215.79C390.28 209.79 393.5 204.6 398.67 203.67C399.874 203.408 401.122 203.432 402.315 203.739C403.508 204.047 404.613 204.629 405.54 205.44C405.714 205.595 405.851 205.787 405.941 206.002C406.03 206.216 406.07 206.449 406.058 206.681C406.045 206.914 405.98 207.14 405.868 207.345C405.756 207.549 405.6 207.725 405.41 207.86L405.31 207.93C405.01 208.139 404.648 208.237 404.283 208.21C403.919 208.183 403.575 208.031 403.31 207.78C402.749 207.306 402.086 206.97 401.373 206.796C400.66 206.623 399.916 206.617 399.2 206.78C395.26 207.49 393.76 211.59 394.32 215.27C394.38 215.63 394.44 215.98 394.53 216.27C394.627 216.647 394.584 217.045 394.409 217.393C394.234 217.74 393.94 218.013 393.58 218.16L393.61 218.24Z" fill="#F0F0F0"/>
<path d="M398.9 224.4C398.648 224.375 398.406 224.287 398.198 224.143C397.989 223.999 397.821 223.804 397.709 223.576C397.597 223.349 397.545 223.097 397.557 222.844C397.569 222.591 397.646 222.345 397.78 222.13L397.92 221.91C398.064 221.681 398.267 221.495 398.509 221.374C398.75 221.252 399.02 221.199 399.29 221.22C399.792 221.249 400.295 221.219 400.79 221.13C404.23 220.51 405.79 217.31 405.79 214.05C405.78 213.658 405.912 213.277 406.163 212.975C406.413 212.673 406.763 212.473 407.15 212.41C407.372 212.376 407.599 212.389 407.815 212.449C408.032 212.508 408.233 212.612 408.407 212.755C408.58 212.897 408.722 213.075 408.822 213.275C408.923 213.476 408.98 213.696 408.99 213.92C409.08 219.14 405.99 223.45 401.36 224.28C400.549 224.43 399.722 224.47 398.9 224.4Z" fill="#F0F0F0"/>
<path d="M399.61 218.49C398.802 218.422 398.036 218.103 397.419 217.577C396.802 217.052 396.365 216.346 396.17 215.56C396.113 215.338 396.111 215.106 396.162 214.883C396.213 214.66 396.317 214.452 396.465 214.277C396.612 214.102 396.8 213.965 397.011 213.877C397.222 213.788 397.452 213.752 397.68 213.77H398.05C398.33 213.799 398.595 213.909 398.814 214.087C399.032 214.265 399.194 214.502 399.28 214.77C399.315 214.909 399.392 215.034 399.502 215.128C399.611 215.221 399.747 215.278 399.89 215.29C400.66 215.36 400.79 214.29 400.81 214.03C400.856 213.641 400.783 213.247 400.6 212.9C400.324 212.566 400.181 212.142 400.2 211.71C400.225 211.392 400.345 211.089 400.543 210.84C400.742 210.591 401.011 210.406 401.315 210.311C401.619 210.215 401.945 210.213 402.25 210.303C402.556 210.394 402.827 210.574 403.03 210.82C403.81 211.806 404.17 213.06 404.03 214.31C403.77 216.94 401.92 218.69 399.61 218.49Z" fill="#F0F0F0"/>
<path d="M369.53 182.7C369.321 182.682 369.117 182.624 368.931 182.527C368.745 182.43 368.579 182.298 368.445 182.137C368.31 181.976 368.208 181.79 368.146 181.59C368.083 181.39 368.061 181.179 368.08 180.97L369.29 167.1L383.16 168.32C383.369 168.338 383.573 168.396 383.759 168.493C383.945 168.59 384.11 168.722 384.245 168.883C384.38 169.044 384.482 169.23 384.544 169.43C384.607 169.63 384.629 169.841 384.61 170.05C384.592 170.259 384.534 170.463 384.437 170.65C384.341 170.837 384.208 171.003 384.048 171.139C383.887 171.274 383.701 171.377 383.501 171.44C383.3 171.504 383.089 171.528 382.88 171.51L372.2 170.57L371.27 181.25C371.251 181.46 371.191 181.663 371.093 181.85C370.996 182.036 370.862 182.201 370.701 182.336C370.539 182.471 370.352 182.572 370.152 182.635C369.951 182.697 369.739 182.719 369.53 182.7Z" fill="#F0F0F0"/>
<path d="M435.46 188.47C435.251 188.452 435.047 188.394 434.861 188.297C434.675 188.2 434.509 188.068 434.375 187.907C434.24 187.746 434.138 187.56 434.076 187.36C434.013 187.16 433.991 186.949 434.01 186.74L434.94 176.06L424.26 175.13C424.05 175.111 423.847 175.051 423.66 174.954C423.474 174.856 423.309 174.722 423.174 174.561C423.039 174.399 422.938 174.213 422.875 174.012C422.813 173.811 422.791 173.599 422.81 173.39C422.828 173.181 422.886 172.977 422.983 172.791C423.08 172.605 423.212 172.44 423.373 172.305C423.534 172.17 423.72 172.068 423.92 172.006C424.12 171.943 424.331 171.921 424.54 171.94L438.41 173.15L437.2 187.05C437.155 187.468 436.947 187.851 436.621 188.117C436.295 188.382 435.878 188.509 435.46 188.47Z" fill="#F0F0F0"/>
<path d="M430.55 263.05L416.68 261.84C416.47 261.821 416.267 261.761 416.08 261.664C415.894 261.566 415.729 261.432 415.594 261.271C415.459 261.109 415.358 260.923 415.295 260.722C415.233 260.521 415.211 260.31 415.23 260.1C415.247 259.891 415.306 259.687 415.403 259.501C415.5 259.315 415.632 259.15 415.793 259.015C415.954 258.88 416.14 258.778 416.34 258.716C416.54 258.653 416.751 258.631 416.96 258.65L427.64 259.58L428.57 248.91C428.587 248.7 428.647 248.495 428.744 248.307C428.841 248.12 428.974 247.953 429.136 247.818C429.298 247.682 429.485 247.58 429.686 247.517C429.888 247.453 430.1 247.431 430.31 247.45C430.519 247.468 430.722 247.526 430.909 247.623C431.095 247.72 431.26 247.852 431.395 248.013C431.53 248.174 431.632 248.36 431.694 248.56C431.757 248.76 431.779 248.971 431.76 249.18L430.55 263.05Z" fill="#F0F0F0"/>
<path d="M375.3 258.19L361.43 256.97L362.64 243.11C362.681 242.687 362.886 242.297 363.211 242.024C363.537 241.751 363.957 241.617 364.38 241.65C364.59 241.669 364.793 241.729 364.98 241.826C365.166 241.924 365.331 242.058 365.466 242.219C365.601 242.381 365.702 242.567 365.765 242.768C365.827 242.969 365.849 243.18 365.83 243.39L364.9 254.05L375.57 254.99C375.78 255.008 375.984 255.066 376.17 255.163C376.357 255.259 376.523 255.392 376.659 255.552C376.794 255.713 376.897 255.899 376.961 256.099C377.024 256.3 377.048 256.511 377.03 256.72C376.994 257.144 376.793 257.536 376.468 257.812C376.144 258.087 375.724 258.223 375.3 258.19Z" fill="#F0F0F0"/>
<path d="M74.7299 228.18C74.4693 228.2 74.2115 228.116 74.0115 227.948C73.8115 227.78 73.6853 227.54 73.6599 227.28L72.9199 218.76L81.4399 218.01C81.7005 217.99 81.9584 218.074 82.1584 218.242C82.3583 218.41 82.4845 218.65 82.5099 218.91C82.5267 219.169 82.4423 219.424 82.2743 219.622C82.1064 219.82 81.8681 219.945 81.6099 219.97L75.0499 220.55L75.6199 227.11C75.6396 227.369 75.5577 227.626 75.3916 227.825C75.2255 228.025 74.9882 228.152 74.7299 228.18Z" fill="#E0E0E0"/>
<path d="M115.27 224.63C115.011 224.65 114.755 224.568 114.555 224.402C114.355 224.236 114.228 223.998 114.2 223.74L113.63 217.17L107.06 217.75C106.8 217.77 106.542 217.686 106.342 217.518C106.142 217.35 106.016 217.11 105.99 216.85C105.971 216.589 106.054 216.332 106.222 216.132C106.39 215.932 106.63 215.805 106.89 215.78L115.41 215.04L116.16 223.56C116.18 223.819 116.098 224.076 115.932 224.275C115.766 224.475 115.528 224.602 115.27 224.63Z" fill="#E0E0E0"/>
<path d="M119.47 261.34L110.94 262.09C110.679 262.11 110.422 262.026 110.222 261.858C110.022 261.69 109.895 261.45 109.87 261.19C109.85 260.929 109.934 260.672 110.102 260.472C110.27 260.272 110.51 260.145 110.77 260.12L117.33 259.55L116.76 252.99C116.74 252.731 116.822 252.474 116.988 252.275C117.154 252.075 117.392 251.948 117.65 251.92C117.909 251.9 118.166 251.982 118.365 252.148C118.565 252.314 118.692 252.552 118.72 252.81L119.47 261.34Z" fill="#E0E0E0"/>
<path d="M85.4901 264.31L77.0002 265.05L76.2502 256.52C76.2333 256.261 76.3178 256.006 76.4858 255.808C76.6537 255.61 76.8919 255.485 77.1502 255.46C77.4075 255.443 77.6615 255.526 77.859 255.692C78.0565 255.858 78.1823 256.094 78.2101 256.35L78.7902 262.92L85.3501 262.34C85.6107 262.32 85.8686 262.404 86.0686 262.572C86.2686 262.74 86.3947 262.98 86.4201 263.24C86.4297 263.371 86.4131 263.503 86.3715 263.628C86.3299 263.753 86.2639 263.869 86.1775 263.968C86.0911 264.068 85.9859 264.149 85.8679 264.208C85.75 264.266 85.6216 264.301 85.4901 264.31Z" fill="#E0E0E0"/>
<path d="M114.58 86.05L82.0002 88.85L81.3302 81.22C81.2813 77.5785 82.611 74.0531 85.0528 71.3511C87.4945 68.6491 90.8676 66.9703 94.4954 66.6514C98.1233 66.3325 101.738 67.3972 104.613 69.6318C107.489 71.8665 109.413 75.1058 110 78.7L110.38 83.14L115.09 82.73L114.7 78.29C114.481 75.7857 113.771 73.3491 112.61 71.1194C111.449 68.8896 109.86 66.9103 107.934 65.2946C106.008 63.6789 103.783 62.4583 101.385 61.7025C98.9875 60.9468 96.4645 60.6707 93.9602 60.89C88.9026 61.3329 84.228 63.7668 80.9648 67.6563C79.3491 69.5822 78.1285 71.8075 77.3728 74.2051C76.617 76.6027 76.3409 79.1257 76.5602 81.63L77.2302 89.31C75.3751 89.6731 73.7197 90.7094 72.5825 92.2194C71.4453 93.7295 70.9067 95.6067 71.0702 97.49L73.4002 124.13C73.4833 125.135 73.7643 126.115 74.2268 127.011C74.6894 127.908 75.3246 128.704 76.0958 129.355C76.867 130.005 77.7591 130.497 78.7209 130.801C79.6827 131.106 80.6952 131.218 81.7002 131.13L118.23 127.94C119.236 127.857 120.215 127.576 121.111 127.113C122.008 126.651 122.804 126.016 123.455 125.244C124.105 124.473 124.597 123.581 124.902 122.619C125.206 121.658 125.318 120.645 125.23 119.64L122.9 93C122.811 91.9971 122.525 91.0216 122.058 90.1294C121.592 89.2371 120.954 88.4456 120.181 87.8001C119.408 87.1546 118.516 86.6677 117.555 86.3674C116.594 86.0672 115.583 85.9593 114.58 86.05ZM100.72 106.58L101.52 115.75C101.574 116.119 101.552 116.495 101.455 116.855C101.359 117.216 101.19 117.552 100.958 117.845C100.727 118.138 100.438 118.38 100.11 118.557C99.7818 118.734 99.4209 118.842 99.0493 118.875C98.6778 118.908 98.3035 118.864 97.9493 118.747C97.5952 118.63 97.2687 118.442 96.9898 118.194C96.7109 117.947 96.4855 117.645 96.3273 117.307C96.1692 116.969 96.0817 116.603 96.0702 116.23L95.2702 107.05C94.4453 106.543 93.8012 105.789 93.4297 104.895C93.0581 104.001 92.9781 103.013 93.2011 102.071C93.424 101.129 93.9385 100.281 94.6712 99.6484C95.404 99.0157 96.3177 98.6303 97.2822 98.5471C98.2468 98.464 99.2129 98.6872 100.043 99.1851C100.873 99.683 101.525 100.43 101.906 101.32C102.287 102.21 102.378 103.198 102.165 104.142C101.952 105.086 101.446 105.94 100.72 106.58Z" fill="#EBEBEB"/>
<path d="M170.44 101.44L167.15 96.05C165.492 96.2862 163.808 96.2862 162.15 96.05L158.85 101.42L158.22 101.25C156.082 100.687 154.029 99.8355 152.12 98.72L151.56 98.4L152.95 92.56C152.977 92.4467 153.026 92.3399 153.095 92.2457C153.163 92.1516 153.25 92.072 153.349 92.0115C153.449 91.9511 153.559 91.9109 153.674 91.8935C153.79 91.8761 153.907 91.8817 154.02 91.91C154.247 91.9646 154.442 92.1068 154.564 92.3055C154.686 92.5043 154.724 92.7433 154.67 92.97L153.57 97.52C154.991 98.2942 156.489 98.9176 158.04 99.38L161.26 94.12L161.85 94.22C163.718 94.5201 165.622 94.5201 167.49 94.22L168.07 94.12L171.29 99.38C172.842 98.9212 174.341 98.2976 175.76 97.52L174.33 91.52L174.81 91.17C176.113 90.2305 177.28 89.1168 178.28 87.86C178.419 87.6789 178.623 87.559 178.849 87.5254C179.074 87.4918 179.304 87.5472 179.49 87.68C179.587 87.7475 179.67 87.8341 179.732 87.9345C179.795 88.0349 179.836 88.1471 179.854 88.2641C179.872 88.3811 179.866 88.5005 179.836 88.615C179.806 88.7295 179.753 88.8367 179.68 88.93C178.697 90.171 177.566 91.286 176.31 92.25L177.78 98.38L177.21 98.7C175.303 99.8137 173.255 100.665 171.12 101.23L170.44 101.44ZM150.22 89.7C149.95 89.39 149.68 89.06 149.42 88.7L143.29 90.17L142.96 89.61C141.853 87.6964 141.002 85.6455 140.43 83.51L140.27 82.88L145.64 79.58C145.404 77.9217 145.404 76.2383 145.64 74.58L140.27 71.29L140.43 70.65C141.002 68.5177 141.853 66.4701 142.96 64.56L143.29 63.99L149.42 65.46C150.444 64.1207 151.641 62.9235 152.98 61.9L151.87 57.26C151.816 57.0333 151.854 56.7943 151.976 56.5956C152.098 56.3968 152.293 56.2546 152.52 56.2C152.632 56.1733 152.747 56.1689 152.861 56.1872C152.974 56.2055 153.083 56.246 153.18 56.3064C153.278 56.3668 153.363 56.446 153.43 56.5393C153.496 56.6326 153.544 56.7382 153.57 56.85L154.96 62.63L154.48 62.97C152.939 64.0785 151.589 65.4294 150.48 66.97L150.13 67.45L144.13 66.02C143.352 67.4394 142.729 68.9379 142.27 70.49L147.52 73.71L147.43 74.29C147.096 76.1552 147.096 78.0648 147.43 79.93L147.52 80.52L142.27 83.74C142.731 85.2882 143.354 86.7833 144.13 88.2L150.13 86.77L150.48 87.25C150.791 87.7034 151.125 88.1406 151.48 88.56C151.634 88.7218 151.72 88.9366 151.72 89.16C151.72 89.3834 151.634 89.5982 151.48 89.76C151.395 89.8416 151.294 89.905 151.183 89.9463C151.073 89.9876 150.955 90.0061 150.837 90.0004C150.719 89.9948 150.604 89.9653 150.498 89.9137C150.392 89.862 150.297 89.7893 150.22 89.7ZM185.96 90.19L183.7 89.65C183.473 89.5955 183.278 89.4532 183.156 89.2545C183.034 89.0557 182.996 88.8167 183.05 88.59C183.105 88.3633 183.247 88.1676 183.446 88.0457C183.644 87.9239 183.883 87.8858 184.11 87.94L185.11 88.17C185.883 86.7529 186.503 85.2579 186.96 83.71L181.71 80.49L181.81 79.9C182.144 78.0348 182.144 76.1252 181.81 74.26L181.71 73.68L186.96 70.46C186.505 68.9082 185.884 67.4097 185.11 65.99L179.11 67.42L178.77 66.94C177.659 65.4016 176.308 64.0512 174.77 62.94L174.29 62.6L175.72 56.6C174.3 55.8255 172.802 55.2053 171.25 54.75L168 60.05L167.42 59.95C165.552 59.6499 163.648 59.6499 161.78 59.95L161.19 60.05L158 54.77L157.4 54.95C157.186 55.0204 156.954 55.0043 156.752 54.9053C156.55 54.8062 156.395 54.632 156.32 54.42C156.279 54.3105 156.26 54.1938 156.264 54.0768C156.268 53.9598 156.296 53.8448 156.345 53.7386C156.395 53.6325 156.465 53.5372 156.552 53.4585C156.638 53.3797 156.74 53.319 156.85 53.28C157.29 53.14 157.74 53.01 158.18 52.89L158.81 52.72L162.11 58.1C163.768 57.8536 165.452 57.8536 167.11 58.1L170.4 52.72L171.04 52.89C173.173 53.4596 175.221 54.3104 177.13 55.42L177.7 55.75L176.23 61.88C177.571 62.9012 178.769 64.0987 179.79 65.44L185.92 63.97L186.25 64.54C187.361 66.448 188.212 68.4962 188.78 70.63L188.95 71.27L183.57 74.56C183.819 76.2173 183.819 77.9027 183.57 79.56L188.95 82.86L188.78 83.49C188.212 85.627 187.361 87.6785 186.25 89.59L185.96 90.19ZM164.38 85.65C162.201 85.5637 160.135 84.6594 158.593 83.1174C157.051 81.5754 156.146 79.509 156.06 77.33C156.001 75.1868 156.746 73.099 158.148 71.4777C159.551 69.8564 161.511 68.8191 163.64 68.57C163.765 68.5544 163.892 68.5656 164.012 68.6026C164.132 68.6397 164.243 68.7019 164.338 68.785C164.432 68.8682 164.508 68.9705 164.56 69.0851C164.612 69.1997 164.64 69.3241 164.64 69.45C164.639 69.6627 164.56 69.8676 164.418 70.0261C164.276 70.1846 164.081 70.2856 163.87 70.31C162.388 70.479 161.003 71.1298 159.927 72.1624C158.85 73.1951 158.143 74.5524 157.913 76.0261C157.683 77.4997 157.943 79.0081 158.654 80.3195C159.364 81.6309 160.485 82.6729 161.845 83.2854C163.205 83.8979 164.728 84.047 166.181 83.7099C167.634 83.3727 168.936 82.5679 169.887 81.4191C170.838 80.2703 171.386 78.841 171.446 77.3507C171.506 75.8605 171.076 74.3917 170.22 73.17C170.097 72.9969 170.042 72.7838 170.068 72.5728C170.094 72.3617 170.198 72.1681 170.36 72.03C170.453 71.9471 170.563 71.885 170.682 71.8478C170.802 71.8107 170.927 71.7993 171.051 71.8144C171.175 71.8295 171.294 71.8709 171.401 71.9356C171.508 72.0004 171.599 72.0871 171.67 72.19C172.58 73.4914 173.109 75.0202 173.2 76.6054C173.291 78.1906 172.939 79.7698 172.183 81.1664C171.428 82.563 170.299 83.722 168.923 84.5138C167.546 85.3056 165.977 85.699 164.39 85.65H164.38Z" fill="#F0F0F0"/>
<path d="M108.31 174.64L106.18 171.17C105.102 171.33 104.007 171.33 102.93 171.17L100.8 174.64L100.39 174.53C99.0093 174.166 97.6841 173.618 96.4498 172.9L96.0898 172.69L96.9898 168.91C97.0254 168.765 97.1167 168.639 97.2439 168.561C97.3711 168.482 97.524 168.457 97.6698 168.49C97.7428 168.508 97.8116 168.539 97.8722 168.584C97.9328 168.628 97.9841 168.684 98.0231 168.748C98.0622 168.812 98.0882 168.883 98.0996 168.957C98.111 169.031 98.1077 169.107 98.0898 169.18L97.3898 172.12C98.3073 172.623 99.2762 173.025 100.28 173.32L102.36 169.93L102.73 169.99C103.938 170.19 105.171 170.19 106.38 169.99L106.75 169.93L108.84 173.32C109.838 173.019 110.803 172.617 111.72 172.12L110.8 168.26L111.11 168.03C111.951 167.426 112.704 166.709 113.35 165.9C113.438 165.781 113.569 165.702 113.715 165.679C113.861 165.657 114.01 165.693 114.13 165.78C114.191 165.824 114.243 165.879 114.283 165.943C114.323 166.007 114.35 166.078 114.362 166.153C114.374 166.227 114.371 166.303 114.354 166.377C114.336 166.45 114.304 166.519 114.26 166.58C113.623 167.382 112.891 168.104 112.08 168.73L113.08 172.73L112.71 172.94C111.476 173.659 110.151 174.208 108.77 174.57L108.31 174.64ZM95.2498 167.05L94.7298 166.42L90.7298 167.36L90.5198 167C89.8153 165.76 89.2806 164.432 88.9298 163.05L88.8198 162.64L92.2898 160.51C92.1298 159.433 92.1298 158.337 92.2898 157.26L88.8198 155.13L88.9298 154.72C89.2923 153.339 89.8406 152.013 90.5598 150.78L90.7698 150.41L94.7698 151.41C95.413 150.534 96.1621 149.742 96.9998 149.05L96.2898 146.05C96.272 145.978 96.2688 145.903 96.2804 145.829C96.2919 145.756 96.318 145.685 96.3571 145.622C96.3963 145.559 96.4476 145.504 96.5081 145.46C96.5687 145.417 96.6373 145.386 96.7098 145.37C96.8556 145.337 97.0086 145.362 97.1358 145.441C97.263 145.519 97.3542 145.645 97.3898 145.79L98.2898 149.52L97.9698 149.75C96.9788 150.461 96.1107 151.329 95.3998 152.32L95.1698 152.63L91.3098 151.71C90.8132 152.627 90.4112 153.592 90.1098 154.59L93.4998 156.67L93.4398 157.05C93.3367 157.651 93.2832 158.26 93.2798 158.87C93.2831 159.483 93.3367 160.095 93.4398 160.7L93.4998 161.07L90.1098 163.15C90.4093 164.152 90.8114 165.121 91.3098 166.04L95.1698 165.11L95.3998 165.42C95.6064 165.716 95.8301 166 96.0698 166.27C96.1683 166.374 96.2232 166.512 96.2232 166.655C96.2232 166.798 96.1683 166.936 96.0698 167.04C96.0181 167.097 95.9552 167.143 95.885 167.174C95.8149 167.206 95.7389 167.223 95.662 167.224C95.5851 167.225 95.5088 167.21 95.4378 167.18C95.3669 167.15 95.3029 167.106 95.2498 167.05ZM118.34 167.36L116.88 167.02C116.807 167.002 116.738 166.971 116.677 166.926C116.617 166.882 116.566 166.826 116.527 166.762C116.487 166.698 116.462 166.627 116.45 166.553C116.439 166.479 116.442 166.403 116.46 166.33C116.476 166.257 116.507 166.189 116.55 166.128C116.594 166.068 116.648 166.016 116.712 165.977C116.775 165.938 116.845 165.912 116.919 165.901C116.992 165.889 117.068 165.892 117.14 165.91L117.77 166.06C118.272 165.143 118.675 164.174 118.97 163.17L115.58 161.09L115.64 160.72C115.743 160.115 115.797 159.503 115.8 158.89C115.796 158.28 115.743 157.671 115.64 157.07L115.58 156.69L118.97 154.61C118.673 153.61 118.271 152.645 117.77 151.73L113.91 152.65L113.68 152.34C112.969 151.349 112.101 150.481 111.11 149.77L110.8 149.54L111.72 145.68C110.805 145.179 109.84 144.777 108.84 144.48L106.75 147.87L106.38 147.81C105.171 147.61 103.938 147.61 102.73 147.81L102.36 147.87L100.28 144.48L99.8898 144.6C99.7505 144.645 99.5993 144.633 99.4685 144.568C99.3377 144.502 99.2377 144.388 99.1898 144.25C99.1629 144.18 99.1504 144.105 99.153 144.03C99.1556 143.955 99.1733 143.881 99.205 143.813C99.2367 143.745 99.2818 143.684 99.3376 143.633C99.3934 143.583 99.4588 143.545 99.5298 143.52L100.39 143.26L100.8 143.16L102.93 146.63C104.007 146.47 105.102 146.47 106.18 146.63L108.31 143.16L108.72 143.26C110.1 143.63 111.425 144.182 112.66 144.9L113.03 145.11L112.03 149.11C112.891 149.776 113.664 150.549 114.33 151.41L118.33 150.41L118.54 150.78C119.259 152.013 119.807 153.339 120.17 154.72L120.28 155.13L116.81 157.26C116.97 158.337 116.97 159.433 116.81 160.51L120.28 162.64L120.17 163.05C119.806 164.43 119.257 165.756 118.54 166.99L118.34 167.36ZM104.4 164.43C103.041 164.337 101.764 163.746 100.813 162.771C99.8621 161.796 99.3036 160.505 99.2442 159.145C99.1848 157.784 99.6288 156.449 100.491 155.395C101.354 154.341 102.574 153.641 103.92 153.43C104 153.422 104.081 153.43 104.158 153.455C104.235 153.48 104.305 153.52 104.366 153.574C104.426 153.627 104.474 153.693 104.508 153.766C104.541 153.84 104.559 153.919 104.56 154C104.561 154.139 104.51 154.273 104.418 154.376C104.325 154.48 104.198 154.545 104.06 154.56C103.216 154.656 102.419 154.995 101.763 155.534C101.108 156.074 100.623 156.792 100.366 157.601C100.109 158.41 100.092 159.276 100.316 160.095C100.541 160.914 100.998 161.65 101.631 162.215C102.265 162.78 103.048 163.15 103.887 163.28C104.726 163.41 105.585 163.294 106.36 162.947C107.134 162.599 107.792 162.035 108.253 161.323C108.715 160.61 108.96 159.779 108.96 158.93C108.962 158.027 108.682 157.146 108.16 156.41C108.083 156.296 108.051 156.159 108.067 156.023C108.084 155.887 108.148 155.762 108.25 155.67C108.31 155.616 108.381 155.575 108.458 155.551C108.535 155.526 108.617 155.518 108.697 155.528C108.778 155.537 108.855 155.564 108.925 155.606C108.994 155.647 109.054 155.703 109.1 155.77C109.685 156.611 110.025 157.599 110.082 158.622C110.14 159.645 109.912 160.664 109.425 161.565C108.938 162.467 108.21 163.216 107.323 163.728C106.436 164.241 105.424 164.498 104.4 164.47V164.43Z" fill="#E6E6E6"/>
<path d="M250 372.06C357.082 372.06 443.89 366.992 443.89 360.74C443.89 354.488 357.082 349.42 250 349.42C142.917 349.42 56.1099 354.488 56.1099 360.74C56.1099 366.992 142.917 372.06 250 372.06Z" fill="#F5F5F5"/>
<path d="M363.45 90.88H330.89L307.89 354.13H340.45C345.02 354.042 349.4 352.285 352.763 349.19C356.127 346.095 358.242 341.877 358.71 337.33L378.8 107.67C379.034 105.53 378.808 103.365 378.139 101.319C377.47 99.2733 376.373 97.3934 374.921 95.8048C373.468 94.2161 371.694 92.9552 369.716 92.1061C367.738 91.2569 365.602 90.8389 363.45 90.88Z" fill="#407BFF"/>
<path d="M356.81 90.88H246.61C242.04 90.9656 237.659 92.7203 234.294 95.8132C230.928 98.9061 228.811 103.123 228.34 107.67L208.25 337.33C208.019 339.468 208.245 341.631 208.913 343.676C209.581 345.72 210.677 347.599 212.126 349.187C213.576 350.776 215.347 352.038 217.322 352.891C219.296 353.743 221.43 354.165 223.58 354.13H333.77C338.334 354.032 342.705 352.271 346.062 349.178C349.419 346.084 351.531 341.871 352 337.33L372.09 107.67C372.323 105.536 372.099 103.377 371.434 101.336C370.77 99.2953 369.679 97.419 368.234 95.8315C366.789 94.2439 365.024 92.9816 363.054 92.1279C361.085 91.2743 358.956 90.8489 356.81 90.88Z" fill="#407BFF"/>
<path opacity="0.3" d="M356.81 90.88H246.61C242.04 90.9656 237.659 92.7203 234.294 95.8132C230.928 98.9061 228.811 103.123 228.34 107.67L208.25 337.33C208.019 339.468 208.245 341.631 208.913 343.676C209.581 345.72 210.677 347.599 212.126 349.187C213.576 350.776 215.347 352.038 217.322 352.891C219.296 353.743 221.43 354.165 223.58 354.13H333.77C338.334 354.032 342.705 352.271 346.062 349.178C349.419 346.084 351.531 341.871 352 337.33L372.09 107.67C372.323 105.536 372.099 103.377 371.434 101.336C370.77 99.2953 369.679 97.419 368.234 95.8315C366.789 94.2439 365.024 92.9816 363.054 92.1279C361.085 91.2743 358.956 90.8489 356.81 90.88Z" fill="white"/>
<path opacity="0.4" d="M356.34 96.26H327.28C326.414 96.2671 325.57 96.5339 324.857 97.0259C324.144 97.5179 323.594 98.2126 323.28 99.02C322.134 101.986 320.13 104.543 317.525 106.365C314.919 108.187 311.829 109.191 308.65 109.25H291.51C288.516 109.31 285.595 108.325 283.249 106.463C280.904 104.601 279.281 101.98 278.66 99.05C278.495 98.2574 278.057 97.5476 277.424 97.0435C276.79 96.5395 276 96.2729 275.19 96.29H246.14C243.034 96.3449 240.056 97.5364 237.769 99.639C235.482 101.742 234.045 104.609 233.73 107.7L213.63 337.36C213.469 338.814 213.62 340.286 214.073 341.677C214.526 343.068 215.27 344.347 216.257 345.428C217.243 346.508 218.448 347.366 219.792 347.944C221.136 348.522 222.588 348.807 224.05 348.78H334.25C337.357 348.723 340.336 347.529 342.622 345.425C344.909 343.321 346.345 340.452 346.66 337.36L366.75 107.7C366.914 106.245 366.766 104.772 366.315 103.379C365.864 101.986 365.121 100.706 364.136 99.6229C363.15 98.5401 361.945 97.68 360.601 97.1C359.257 96.5201 357.804 96.2337 356.34 96.26Z" fill="white"/>
<path d="M328.88 221.05H251.76C251.23 221.059 250.704 220.955 250.217 220.745C249.731 220.535 249.294 220.224 248.937 219.832C248.579 219.441 248.309 218.978 248.144 218.474C247.979 217.97 247.923 217.437 247.98 216.91L248.37 212.49C248.485 211.369 249.006 210.329 249.835 209.567C250.664 208.804 251.744 208.371 252.87 208.35H330C330.53 208.341 331.056 208.445 331.543 208.655C332.029 208.865 332.466 209.176 332.823 209.568C333.181 209.959 333.451 210.422 333.616 210.926C333.781 211.43 333.837 211.963 333.78 212.49L333.4 216.91C333.283 218.033 332.758 219.075 331.925 219.837C331.093 220.6 330.009 221.032 328.88 221.05Z" fill="white"/>
<path d="M327.22 240.05H250.09C249.56 240.059 249.035 239.955 248.549 239.745C248.062 239.535 247.626 239.224 247.269 238.832C246.913 238.44 246.644 237.977 246.48 237.473C246.316 236.969 246.262 236.437 246.32 235.91L246.7 231.49C246.817 230.37 247.338 229.331 248.167 228.569C248.996 227.807 250.074 227.373 251.2 227.35H328.33C328.86 227.341 329.386 227.445 329.873 227.655C330.359 227.865 330.796 228.176 331.153 228.568C331.511 228.959 331.781 229.422 331.946 229.926C332.111 230.43 332.167 230.963 332.11 231.49L331.72 235.91C331.603 237.03 331.082 238.069 330.253 238.831C329.424 239.593 328.346 240.027 327.22 240.05Z" fill="white"/>
<path opacity="0.1" d="M305.45 100.56C305.323 101.804 304.744 102.959 303.822 103.805C302.901 104.651 301.701 105.13 300.45 105.15C299.862 105.161 299.279 105.046 298.739 104.813C298.199 104.581 297.714 104.236 297.318 103.802C296.921 103.368 296.622 102.854 296.44 102.295C296.257 101.736 296.196 101.144 296.26 100.56C296.387 99.3155 296.966 98.1609 297.888 97.315C298.809 96.469 300.009 95.9905 301.26 95.97C301.848 95.9594 302.431 96.0742 302.971 96.3066C303.511 96.5391 303.996 96.8839 304.392 97.3182C304.789 97.7524 305.088 98.2661 305.27 98.8251C305.453 99.3841 305.514 99.9755 305.45 100.56Z" fill="black"/>
<path opacity="0.1" d="M303.37 100.56C303.3 101.239 302.983 101.869 302.48 102.332C301.978 102.794 301.323 103.057 300.64 103.07C300.319 103.076 300 103.014 299.704 102.887C299.409 102.76 299.144 102.571 298.927 102.334C298.71 102.096 298.547 101.815 298.447 101.509C298.348 101.203 298.315 100.88 298.35 100.56C298.419 99.8798 298.735 99.2485 299.238 98.7858C299.741 98.3231 300.397 98.0613 301.08 98.05C301.401 98.0454 301.72 98.1089 302.015 98.2365C302.309 98.364 302.574 98.5526 302.79 98.7898C303.006 99.027 303.17 99.3075 303.27 99.6126C303.37 99.9178 303.404 100.241 303.37 100.56Z" fill="black"/>
<g opacity="0.8">
<path d="M342.77 108.22C342.598 108.222 342.426 108.188 342.268 108.12C342.11 108.051 341.968 107.949 341.851 107.822C341.735 107.694 341.647 107.543 341.594 107.379C341.54 107.215 341.522 107.042 341.54 106.87L341.76 104.41C341.797 104.046 341.966 103.709 342.235 103.462C342.504 103.215 342.855 103.076 343.22 103.07C343.392 103.068 343.562 103.102 343.72 103.17C343.877 103.238 344.019 103.338 344.135 103.465C344.251 103.591 344.339 103.741 344.393 103.904C344.448 104.067 344.467 104.239 344.45 104.41L344.23 106.87C344.194 107.234 344.025 107.573 343.756 107.822C343.487 108.07 343.136 108.212 342.77 108.22Z" fill="white"/>
<path d="M353.53 108.22C353.357 108.222 353.186 108.188 353.028 108.12C352.869 108.051 352.727 107.949 352.611 107.822C352.495 107.694 352.407 107.543 352.353 107.379C352.3 107.215 352.282 107.042 352.3 106.87L352.81 101.1C352.847 100.736 353.016 100.399 353.285 100.152C353.554 99.905 353.905 99.7655 354.27 99.76C354.442 99.7578 354.612 99.7918 354.769 99.8598C354.927 99.9279 355.069 100.028 355.185 100.155C355.301 100.281 355.389 100.431 355.443 100.594C355.497 100.757 355.517 100.929 355.5 101.1L354.99 106.87C354.953 107.234 354.785 107.573 354.516 107.822C354.247 108.07 353.896 108.212 353.53 108.22Z" fill="white"/>
<path d="M348.15 108.22C347.977 108.222 347.806 108.188 347.648 108.12C347.49 108.051 347.348 107.949 347.231 107.822C347.115 107.694 347.027 107.543 346.973 107.379C346.92 107.215 346.902 107.042 346.92 106.87L347.28 102.76C347.317 102.394 347.487 102.054 347.758 101.805C348.029 101.556 348.382 101.416 348.75 101.41C348.922 101.407 349.093 101.442 349.251 101.51C349.409 101.579 349.55 101.681 349.666 101.809C349.781 101.936 349.868 102.087 349.921 102.251C349.973 102.416 349.99 102.589 349.97 102.76L349.61 106.87C349.573 107.234 349.405 107.573 349.136 107.822C348.867 108.07 348.516 108.212 348.15 108.22Z" fill="white"/>
</g>
<g opacity="0.8">
<path d="M250.64 108.22H243.88C243.783 108.222 243.686 108.203 243.597 108.165C243.508 108.126 243.427 108.069 243.362 107.997C243.297 107.925 243.247 107.84 243.218 107.747C243.188 107.655 243.179 107.557 243.19 107.46L243.5 103.83C243.522 103.624 243.619 103.433 243.771 103.293C243.924 103.153 244.123 103.074 244.33 103.07H251.09C251.188 103.068 251.284 103.087 251.374 103.125C251.463 103.164 251.543 103.221 251.608 103.293C251.674 103.365 251.723 103.45 251.753 103.543C251.782 103.635 251.792 103.733 251.78 103.83L251.46 107.46C251.443 107.666 251.349 107.858 251.197 107.999C251.046 108.139 250.847 108.218 250.64 108.22Z" fill="white"/>
<path d="M253.77 107.23C253.673 107.232 253.576 107.213 253.486 107.175C253.396 107.136 253.316 107.079 253.249 107.008C253.183 106.936 253.133 106.851 253.102 106.758C253.071 106.665 253.061 106.567 253.07 106.47L253.22 104.81C253.24 104.603 253.336 104.411 253.489 104.27C253.643 104.13 253.843 104.052 254.05 104.05C254.148 104.048 254.244 104.067 254.334 104.105C254.423 104.144 254.503 104.201 254.569 104.273C254.634 104.345 254.683 104.43 254.713 104.523C254.743 104.615 254.752 104.713 254.74 104.81L254.6 106.47C254.579 106.676 254.482 106.867 254.329 107.007C254.176 107.147 253.978 107.226 253.77 107.23Z" fill="white"/>
</g>
<path d="M316.173 191.981C329.629 179.099 330.971 158.662 319.17 146.335C307.369 134.007 286.894 134.457 273.437 147.339C259.981 160.22 258.638 180.657 270.44 192.984C282.241 205.312 302.716 204.863 316.173 191.981Z" fill="white"/>
<path d="M294.92 168.43C286.44 168.43 279.27 171.66 278.66 178.67L277.98 186.46H308.71L309.39 178.67C310 171.66 303.41 168.43 294.92 168.43Z" fill="#407BFF"/>
<path d="M295.2 165.22C299.14 165.22 300.96 162.03 301.3 158.09C301.64 154.15 300.39 150.96 296.45 150.96C292.51 150.96 290.7 154.16 290.35 158.09C290 162.02 291.26 165.22 295.2 165.22Z" fill="#407BFF"/>
<path d="M325.36 214.43C323.27 214.43 321.5 215.23 321.36 216.96L321.19 218.89H328.78L328.95 216.96C329.09 215.23 327.46 214.43 325.36 214.43Z" fill="#407BFF"/>
<path d="M325.43 213.64C326.43 213.64 326.85 212.85 326.94 211.88C327.03 210.91 326.71 210.12 325.74 210.12C324.77 210.12 324.32 210.91 324.23 211.88C324.14 212.85 324.46 213.64 325.43 213.64Z" fill="#407BFF"/>
<path d="M302 259.05H272C271.187 259.065 270.379 258.906 269.632 258.585C268.885 258.263 268.214 257.786 267.666 257.185C267.117 256.585 266.703 255.874 266.45 255.101C266.197 254.327 266.112 253.509 266.2 252.7C266.378 250.98 267.179 249.385 268.452 248.216C269.725 247.046 271.382 246.382 273.11 246.35H303.11C303.923 246.337 304.73 246.497 305.476 246.819C306.223 247.141 306.893 247.618 307.441 248.218C307.989 248.819 308.404 249.529 308.657 250.301C308.911 251.074 308.997 251.892 308.91 252.7C308.734 254.42 307.934 256.017 306.661 257.187C305.387 258.357 303.729 259.02 302 259.05Z" fill="#407BFF"/>
<path d="M298.37 329.87H266.26C265.399 329.893 264.542 329.731 263.749 329.394C262.956 329.056 262.245 328.552 261.665 327.915C261.084 327.279 260.647 326.524 260.384 325.704C260.121 324.883 260.038 324.016 260.14 323.16L262.19 299.74C262.373 297.923 263.217 296.237 264.56 295C265.904 293.763 267.654 293.062 269.48 293.03H301.6C302.459 293.015 303.312 293.183 304.101 293.523C304.89 293.863 305.597 294.367 306.176 295.002C306.755 295.637 307.192 296.388 307.459 297.205C307.725 298.022 307.814 298.886 307.72 299.74L305.67 323.16C305.482 324.977 304.636 326.662 303.292 327.898C301.947 329.134 300.196 329.836 298.37 329.87Z" fill="#407BFF"/>
<g opacity="0.6">
<path d="M288.47 305.65C288.523 305.139 288.466 304.623 288.304 304.135C288.142 303.647 287.878 303.2 287.531 302.822C287.183 302.444 286.759 302.144 286.286 301.942C285.814 301.74 285.304 301.64 284.79 301.65C283.696 301.666 282.646 302.081 281.837 302.818C281.028 303.555 280.517 304.562 280.4 305.65C280.337 306.258 280.427 306.873 280.663 307.437C280.899 308.002 281.273 308.498 281.75 308.88L281.05 316.95C281.016 317.256 281.047 317.565 281.142 317.858C281.237 318.15 281.394 318.419 281.601 318.646C281.809 318.874 282.062 319.054 282.345 319.175C282.627 319.297 282.933 319.356 283.24 319.35C283.892 319.336 284.516 319.085 284.995 318.643C285.474 318.2 285.774 317.598 285.84 316.95L286.55 308.88C287.086 308.514 287.535 308.035 287.867 307.477C288.199 306.919 288.404 306.296 288.47 305.65Z" fill="white"/>
</g>
<path d="M301.88 297.91H297.74L298.74 286.32C298.915 284.711 298.745 283.084 298.243 281.546C297.741 280.008 296.917 278.594 295.826 277.399C294.736 276.204 293.404 275.254 291.918 274.613C290.433 273.971 288.828 273.654 287.21 273.68C283.772 273.747 280.477 275.07 277.946 277.398C275.415 279.726 273.823 282.899 273.47 286.32L272.47 297.91H268.33L269.33 286.32C269.796 281.78 271.907 277.568 275.266 274.479C278.624 271.389 282.998 269.636 287.56 269.55C289.707 269.513 291.838 269.934 293.81 270.784C295.783 271.634 297.552 272.894 299 274.48C300.448 276.066 301.542 277.942 302.209 279.983C302.876 282.025 303.102 284.185 302.87 286.32L301.88 297.91Z" fill="#407BFF"/>
<path d="M325.87 232.18L326 231.05C326.027 230.788 325.998 230.524 325.916 230.274C325.833 230.024 325.699 229.794 325.521 229.599C325.344 229.405 325.127 229.25 324.886 229.145C324.644 229.04 324.383 228.987 324.12 228.99C323.56 229.002 323.023 229.217 322.611 229.597C322.198 229.976 321.938 230.493 321.88 231.05L321.78 232.16C321.556 232.166 321.342 232.254 321.178 232.407C321.014 232.56 320.912 232.767 320.89 232.99L320.63 235.99C320.617 236.095 320.627 236.201 320.659 236.302C320.691 236.403 320.745 236.495 320.816 236.573C320.887 236.651 320.975 236.713 321.072 236.754C321.169 236.794 321.275 236.814 321.38 236.81H325.5C325.723 236.806 325.937 236.721 326.101 236.569C326.265 236.418 326.368 236.212 326.39 235.99L326.65 232.99C326.659 232.884 326.645 232.777 326.609 232.677C326.573 232.577 326.517 232.486 326.443 232.409C326.369 232.332 326.28 232.272 326.181 232.233C326.082 232.193 325.976 232.175 325.87 232.18ZM324 229.52C324.199 229.518 324.395 229.557 324.577 229.636C324.759 229.715 324.923 229.831 325.057 229.977C325.191 230.124 325.292 230.297 325.355 230.485C325.418 230.673 325.44 230.873 325.42 231.07L325.32 232.18H322.22L322.32 231.07C322.364 230.652 322.558 230.263 322.868 229.978C323.177 229.693 323.58 229.53 324 229.52Z" fill="#407BFF"/>
<path d="M263.85 233.37L262.41 233.07C262.37 233.062 262.332 233.045 262.3 233.02C262.267 232.995 262.241 232.963 262.223 232.926C262.204 232.89 262.195 232.849 262.194 232.808C262.194 232.767 262.203 232.727 262.22 232.69L262.82 231.27C262.845 231.209 262.847 231.14 262.827 231.078C262.806 231.015 262.764 230.961 262.708 230.926C262.651 230.891 262.584 230.878 262.519 230.888C262.454 230.897 262.394 230.93 262.35 230.98L261.26 232.1C261.234 232.133 261.2 232.16 261.162 232.179C261.124 232.197 261.082 232.207 261.04 232.207C260.998 232.207 260.956 232.197 260.918 232.179C260.88 232.16 260.846 232.133 260.82 232.1L259.93 230.98C259.74 230.74 259.33 230.98 259.4 231.27L259.75 232.69C259.76 232.731 259.762 232.775 259.755 232.817C259.747 232.859 259.731 232.899 259.708 232.935C259.685 232.97 259.654 233.001 259.618 233.024C259.582 233.047 259.542 233.063 259.5 233.07L258.01 233.37C257.69 233.43 257.65 233.88 257.96 233.94L259.4 234.24C259.44 234.248 259.478 234.265 259.511 234.29C259.543 234.315 259.569 234.347 259.587 234.384C259.604 234.421 259.613 234.462 259.612 234.503C259.611 234.544 259.6 234.584 259.58 234.62L259 236.05C258.975 236.111 258.973 236.18 258.993 236.242C259.014 236.305 259.056 236.359 259.112 236.394C259.169 236.429 259.236 236.442 259.301 236.432C259.367 236.423 259.426 236.39 259.47 236.34L260.56 235.22C260.588 235.19 260.622 235.166 260.66 235.149C260.698 235.132 260.739 235.124 260.78 235.124C260.821 235.124 260.862 235.132 260.9 235.149C260.938 235.166 260.972 235.19 261 235.22L261.89 236.34C262.08 236.58 262.49 236.34 262.41 236.05L262.06 234.63C262.045 234.545 262.064 234.458 262.113 234.387C262.161 234.316 262.236 234.267 262.32 234.25L263.81 233.95C264.12 233.88 264.16 233.43 263.85 233.37Z" fill="#263238"/>
<path d="M273.31 233.37L271.87 233.07C271.83 233.062 271.792 233.045 271.76 233.02C271.727 232.995 271.701 232.963 271.683 232.926C271.664 232.89 271.654 232.849 271.654 232.808C271.654 232.767 271.662 232.727 271.68 232.69L272.28 231.27C272.305 231.209 272.307 231.14 272.287 231.078C272.266 231.015 272.224 230.961 272.168 230.926C272.111 230.891 272.044 230.878 271.979 230.888C271.913 230.897 271.854 230.93 271.81 230.98L270.72 232.1C270.694 232.133 270.66 232.16 270.622 232.179C270.584 232.197 270.542 232.207 270.5 232.207C270.458 232.207 270.416 232.197 270.378 232.179C270.34 232.16 270.306 232.133 270.28 232.1L269.39 230.98C269.2 230.74 268.79 230.98 268.87 231.27L269.22 232.69C269.229 232.732 269.229 232.775 269.22 232.818C269.212 232.86 269.195 232.9 269.171 232.935C269.146 232.971 269.115 233.001 269.079 233.024C269.043 233.047 269.002 233.063 268.96 233.07L267.47 233.37C267.15 233.43 267.11 233.88 267.42 233.94L268.86 234.24C268.9 234.248 268.938 234.265 268.97 234.29C269.003 234.315 269.029 234.347 269.047 234.384C269.066 234.42 269.075 234.461 269.076 234.502C269.076 234.543 269.067 234.583 269.05 234.62L268.45 236.04C268.425 236.101 268.423 236.17 268.443 236.232C268.464 236.295 268.506 236.349 268.562 236.384C268.619 236.419 268.685 236.432 268.751 236.422C268.816 236.413 268.876 236.38 268.92 236.33L270.01 235.21C270.038 235.18 270.072 235.156 270.11 235.139C270.148 235.122 270.189 235.114 270.23 235.114C270.271 235.114 270.312 235.122 270.35 235.139C270.388 235.156 270.422 235.18 270.45 235.21L271.34 236.33C271.53 236.57 271.94 236.33 271.87 236.04L271.52 234.62C271.511 234.579 271.511 234.536 271.519 234.494C271.526 234.453 271.542 234.413 271.566 234.378C271.589 234.343 271.619 234.312 271.654 234.288C271.689 234.265 271.728 234.248 271.77 234.24L273.26 233.94C273.58 233.88 273.62 233.43 273.31 233.37Z" fill="#263238"/>
<path d="M282.77 233.37L281.34 233.07C281.299 233.064 281.26 233.048 281.226 233.023C281.193 232.999 281.165 232.966 281.147 232.929C281.128 232.892 281.119 232.851 281.119 232.809C281.12 232.768 281.13 232.727 281.15 232.69L281.75 231.27C281.789 231.206 281.8 231.13 281.782 231.058C281.765 230.986 281.719 230.923 281.655 230.885C281.592 230.847 281.515 230.835 281.443 230.853C281.371 230.871 281.309 230.916 281.27 230.98L280.19 232.1C280.163 232.133 280.129 232.16 280.09 232.179C280.051 232.197 280.008 232.207 279.965 232.207C279.922 232.207 279.88 232.197 279.841 232.179C279.802 232.16 279.767 232.133 279.74 232.1L278.85 230.98C278.66 230.74 278.25 230.98 278.33 231.27L278.68 232.69C278.689 232.731 278.689 232.774 278.682 232.816C278.674 232.857 278.658 232.897 278.634 232.932C278.611 232.967 278.581 232.998 278.546 233.022C278.511 233.045 278.472 233.062 278.43 233.07L276.94 233.37C276.62 233.43 276.58 233.88 276.89 233.94L278.32 234.24C278.36 234.248 278.398 234.265 278.43 234.29C278.463 234.315 278.489 234.347 278.508 234.384C278.526 234.42 278.536 234.461 278.536 234.502C278.537 234.543 278.528 234.583 278.51 234.62L277.91 236.04C277.872 236.104 277.86 236.18 277.878 236.252C277.896 236.324 277.942 236.387 278.005 236.425C278.069 236.463 278.145 236.475 278.217 236.457C278.29 236.439 278.352 236.394 278.39 236.33L279.47 235.21C279.498 235.18 279.532 235.156 279.57 235.139C279.608 235.122 279.649 235.114 279.69 235.114C279.731 235.114 279.772 235.122 279.81 235.139C279.848 235.156 279.882 235.18 279.91 235.21L280.81 236.33C281 236.57 281.41 236.33 281.33 236.04L280.98 234.62C280.965 234.537 280.983 234.451 281.029 234.38C281.076 234.309 281.148 234.259 281.23 234.24L282.72 233.94C283 233.88 283.08 233.43 282.77 233.37Z" fill="#263238"/>
<path d="M292.24 233.37L290.8 233.07C290.76 233.062 290.722 233.045 290.69 233.02C290.658 232.995 290.631 232.963 290.613 232.926C290.595 232.89 290.585 232.849 290.584 232.808C290.584 232.767 290.593 232.727 290.61 232.69L291.21 231.27C291.235 231.209 291.238 231.14 291.217 231.078C291.196 231.015 291.154 230.961 291.098 230.926C291.042 230.891 290.975 230.878 290.909 230.888C290.844 230.897 290.784 230.93 290.74 230.98L289.65 232.1C289.624 232.133 289.591 232.16 289.553 232.179C289.514 232.197 289.473 232.207 289.43 232.207C289.388 232.207 289.346 232.197 289.308 232.179C289.27 232.16 289.236 232.133 289.21 232.1L288.32 230.98C288.13 230.74 287.72 230.98 287.79 231.27L288.14 232.69C288.15 232.731 288.152 232.775 288.145 232.817C288.138 232.859 288.122 232.899 288.098 232.935C288.075 232.97 288.044 233.001 288.008 233.024C287.973 233.047 287.932 233.063 287.89 233.07L286.4 233.37C286.08 233.43 286.04 233.88 286.4 233.94L287.84 234.24C287.881 234.248 287.918 234.265 287.951 234.29C287.983 234.315 288.009 234.347 288.027 234.384C288.045 234.421 288.053 234.462 288.052 234.503C288.051 234.544 288.04 234.584 288.02 234.62L287.43 236.04C287.405 236.101 287.403 236.17 287.423 236.232C287.444 236.295 287.486 236.349 287.543 236.384C287.599 236.419 287.666 236.432 287.731 236.422C287.797 236.413 287.857 236.38 287.9 236.33L288.99 235.21C289.018 235.18 289.052 235.156 289.09 235.139C289.128 235.122 289.169 235.114 289.21 235.114C289.252 235.114 289.292 235.122 289.33 235.139C289.368 235.156 289.402 235.18 289.43 235.21L290.32 236.33C290.51 236.57 290.92 236.33 290.84 236.04L290.49 234.62C290.476 234.535 290.494 234.448 290.543 234.377C290.592 234.306 290.666 234.257 290.75 234.24L292.24 233.94C292.51 233.88 292.55 233.43 292.24 233.37Z" fill="#263238"/>
<path d="M301.7 233.37L300.26 233.07C300.22 233.062 300.182 233.045 300.15 233.02C300.117 232.995 300.091 232.963 300.073 232.926C300.054 232.89 300.045 232.849 300.044 232.808C300.044 232.767 300.053 232.727 300.07 232.69L300.67 231.27C300.695 231.209 300.697 231.14 300.677 231.078C300.656 231.015 300.614 230.961 300.558 230.926C300.501 230.891 300.435 230.878 300.369 230.888C300.304 230.897 300.244 230.93 300.2 230.98L299.11 232.1C299.084 232.133 299.05 232.16 299.012 232.179C298.974 232.197 298.932 232.207 298.89 232.207C298.848 232.207 298.806 232.197 298.768 232.179C298.73 232.16 298.696 232.133 298.67 232.1L297.78 230.98C297.59 230.74 297.18 230.98 297.26 231.27L297.61 232.69C297.619 232.732 297.619 232.775 297.61 232.818C297.602 232.86 297.585 232.9 297.561 232.935C297.537 232.971 297.505 233.001 297.469 233.024C297.433 233.047 297.392 233.063 297.35 233.07L295.86 233.37C295.54 233.43 295.5 233.88 295.81 233.94L297.25 234.24C297.29 234.248 297.328 234.265 297.36 234.29C297.393 234.315 297.419 234.347 297.438 234.384C297.456 234.42 297.466 234.461 297.466 234.502C297.466 234.543 297.458 234.583 297.44 234.62L296.84 236.04C296.815 236.101 296.813 236.17 296.833 236.232C296.854 236.295 296.896 236.349 296.952 236.384C297.009 236.419 297.076 236.432 297.141 236.422C297.207 236.413 297.266 236.38 297.31 236.33L298.4 235.21C298.428 235.18 298.462 235.156 298.5 235.139C298.538 235.122 298.579 235.114 298.62 235.114C298.661 235.114 298.702 235.122 298.74 235.139C298.778 235.156 298.812 235.18 298.84 235.21L299.73 236.33C299.92 236.57 300.33 236.33 300.26 236.04L299.91 234.62C299.901 234.579 299.901 234.536 299.909 234.494C299.917 234.453 299.933 234.413 299.956 234.378C299.979 234.343 300.009 234.312 300.044 234.288C300.079 234.265 300.119 234.248 300.16 234.24L301.65 233.94C302 233.88 302 233.43 301.7 233.37Z" fill="#263238"/>
<path d="M311.16 233.37L309.72 233.07C309.68 233.062 309.642 233.045 309.61 233.02C309.577 232.995 309.551 232.963 309.534 232.926C309.516 232.889 309.508 232.848 309.509 232.807C309.51 232.766 309.521 232.726 309.54 232.69L310.14 231.27C310.159 231.238 310.172 231.204 310.178 231.167C310.183 231.131 310.181 231.094 310.173 231.058C310.164 231.022 310.148 230.988 310.126 230.959C310.104 230.929 310.077 230.904 310.045 230.885C310.014 230.866 309.979 230.853 309.942 230.848C309.906 230.842 309.869 230.844 309.833 230.853C309.797 230.862 309.764 230.877 309.734 230.899C309.704 230.921 309.679 230.948 309.66 230.98L308.58 232.1C308.553 232.133 308.519 232.16 308.48 232.179C308.441 232.197 308.398 232.207 308.355 232.207C308.312 232.207 308.27 232.197 308.231 232.179C308.192 232.16 308.158 232.133 308.13 232.1L307.24 230.98C307.05 230.74 306.64 230.98 306.72 231.27L307.07 232.69C307.079 232.731 307.08 232.774 307.072 232.816C307.064 232.857 307.048 232.897 307.025 232.932C307.001 232.967 306.971 232.998 306.936 233.022C306.901 233.045 306.862 233.062 306.82 233.07L305.33 233.37C305.01 233.43 304.97 233.88 305.28 233.94L306.71 234.24C306.75 234.248 306.788 234.265 306.821 234.29C306.853 234.315 306.879 234.347 306.898 234.384C306.916 234.42 306.926 234.461 306.926 234.502C306.927 234.543 306.918 234.583 306.9 234.62L306.3 236.04C306.262 236.104 306.25 236.18 306.268 236.252C306.286 236.324 306.332 236.387 306.395 236.425C306.459 236.463 306.535 236.475 306.608 236.457C306.68 236.439 306.742 236.394 306.78 236.33L307.86 235.21C307.888 235.18 307.922 235.156 307.96 235.139C307.998 235.123 308.039 235.114 308.08 235.114C308.122 235.114 308.162 235.123 308.2 235.139C308.238 235.156 308.272 235.18 308.3 235.21L309.19 236.33C309.237 236.382 309.3 236.417 309.369 236.429C309.438 236.441 309.509 236.43 309.571 236.396C309.632 236.362 309.68 236.309 309.708 236.244C309.735 236.179 309.739 236.107 309.72 236.04L309.37 234.62C309.355 234.537 309.373 234.451 309.419 234.38C309.466 234.309 309.538 234.259 309.62 234.24L311.11 233.94C311.43 233.88 311.47 233.43 311.16 233.37Z" fill="#263238"/>
<path d="M288.35 212.66H270.59C270.045 212.669 269.522 212.878 269.121 213.246C268.719 213.615 268.466 214.118 268.41 214.66C268.382 214.915 268.408 215.173 268.487 215.418C268.567 215.662 268.698 215.886 268.871 216.076C269.044 216.265 269.256 216.415 269.492 216.516C269.728 216.617 269.983 216.666 270.24 216.66H288C288.545 216.651 289.068 216.442 289.47 216.074C289.871 215.705 290.124 215.202 290.18 214.66C290.207 214.405 290.18 214.147 290.099 213.904C290.019 213.661 289.889 213.437 289.716 213.248C289.543 213.059 289.331 212.909 289.096 212.807C288.861 212.706 288.606 212.656 288.35 212.66Z" fill="#263238"/>
<path d="M306.39 212.66H296.08C295.536 212.67 295.015 212.879 294.615 213.247C294.215 213.616 293.964 214.119 293.91 214.66C293.882 214.914 293.908 215.172 293.987 215.415C294.066 215.659 294.195 215.882 294.368 216.072C294.54 216.261 294.75 216.411 294.985 216.513C295.22 216.614 295.474 216.664 295.73 216.66H306C306.544 216.65 307.065 216.441 307.466 216.073C307.866 215.704 308.116 215.201 308.17 214.66C308.198 214.409 308.173 214.155 308.097 213.914C308.02 213.674 307.894 213.452 307.726 213.263C307.558 213.075 307.352 212.923 307.122 212.82C306.892 212.716 306.643 212.661 306.39 212.66Z" fill="#263238"/>
<path d="M320 303.31C313.723 305.701 308.056 309.458 303.41 314.31C300.589 312.12 297.226 310.737 293.68 310.31L293.21 310.24L293.01 312.6L293.27 312.7C297.159 314.132 300.448 316.839 302.6 320.38L302.94 320.94L303.31 320.34C307.451 313.729 313.296 308.354 320.23 304.78L320.46 304.66L320.59 303.1L320 303.31Z" fill="#263238"/>
<path opacity="0.2" d="M230.64 106.42C229.366 108.645 228.582 111.117 228.34 113.67L213.45 283.89H259.53L268.79 248.4L265.74 212.9L275 177.41L272 141.92L281.26 106.42H230.64Z" fill="black"/>
<path d="M267.95 131.91L277.21 96.42H160.68L151.43 131.91L154.47 167.41L145.22 202.9L148.26 238.4L139.01 273.89H255.53L264.79 238.4L261.74 202.9L271 167.41L267.95 131.91Z" fill="#407BFF"/>
<path opacity="0.7" d="M267.95 131.91L277.21 96.42H160.68L151.43 131.91L154.47 167.41L145.22 202.9L148.26 238.4L139.01 273.89H255.53L264.79 238.4L261.74 202.9L271 167.41L267.95 131.91Z" fill="white"/>
<path opacity="0.5" d="M267.95 131.91H151.43L160.68 96.42H277.21L267.95 131.91Z" fill="white"/>
<path opacity="0.5" d="M261.74 202.9H145.22L154.47 167.41H271L261.74 202.9Z" fill="white"/>
<path opacity="0.5" d="M255.53 273.89H139L148.26 238.4H264.79L255.53 273.89Z" fill="white"/>
<path opacity="0.2" d="M252.36 146.75C251.165 147.096 249.925 147.264 248.68 147.25C246.993 147.325 245.313 146.981 243.79 146.25C243.515 146.087 243.2 146 242.88 146C242.586 146.004 242.298 146.08 242.04 146.22H241.98C241.534 146.471 241.056 146.662 240.56 146.79C239.441 147.085 238.288 147.23 237.13 147.22C236.78 147.22 236.44 147.22 236.13 147.22C235.232 147.162 234.343 147.005 233.48 146.75C233.353 146.712 233.222 146.689 233.09 146.68C232.87 146.662 232.649 146.69 232.44 146.762C232.232 146.833 232.04 146.947 231.877 147.097C231.715 147.246 231.585 147.427 231.496 147.629C231.407 147.831 231.361 148.049 231.36 148.27V149.35H186C185.167 149.35 184.342 149.514 183.572 149.834C182.802 150.153 182.102 150.621 181.514 151.21C180.925 151.8 180.458 152.5 180.14 153.271C179.822 154.041 179.659 154.867 179.66 155.7V162.09C179.658 162.924 179.82 163.751 180.137 164.522C180.454 165.294 180.921 165.995 181.51 166.586C182.099 167.177 182.799 167.646 183.569 167.965C184.34 168.285 185.166 168.45 186 168.45H237.53H237.87C238.42 168.91 239 169.37 239.62 169.84C240.24 170.31 241.12 170.96 241.93 171.54C242.207 171.74 242.539 171.848 242.88 171.848C243.221 171.848 243.554 171.74 243.83 171.54C250.31 166.84 254.47 163.6 254.47 154.7V148.3C254.473 148.044 254.415 147.791 254.301 147.562C254.187 147.333 254.02 147.134 253.813 146.983C253.607 146.831 253.368 146.731 253.115 146.691C252.862 146.65 252.603 146.67 252.36 146.75Z" fill="black"/>
<path d="M236.54 145.83H185.02C181.513 145.83 178.67 148.673 178.67 152.18V158.57C178.67 162.077 181.513 164.92 185.02 164.92H236.54C240.047 164.92 242.89 162.077 242.89 158.57V152.18C242.89 148.673 240.047 145.83 236.54 145.83Z" fill="#407BFF"/>
<path d="M247.69 143.73C246.003 143.802 244.324 143.459 242.8 142.73C242.529 142.564 242.218 142.476 241.9 142.476C241.582 142.476 241.271 142.564 241 142.73C239.473 143.46 237.791 143.803 236.1 143.73C234.856 143.743 233.616 143.575 232.42 143.23C232.179 143.149 231.922 143.127 231.671 143.164C231.42 143.202 231.181 143.3 230.975 143.448C230.769 143.597 230.601 143.792 230.485 144.019C230.37 144.245 230.31 144.496 230.31 144.75V151.15C230.31 160.06 234.47 163.3 240.95 168C241.226 168.2 241.559 168.308 241.9 168.308C242.241 168.308 242.574 168.2 242.85 168C249.33 163.3 253.49 160.06 253.49 151.15V144.75C253.489 144.495 253.427 144.245 253.311 144.019C253.194 143.792 253.025 143.597 252.818 143.449C252.611 143.3 252.372 143.203 252.12 143.165C251.869 143.127 251.612 143.149 251.37 143.23C250.174 143.576 248.935 143.744 247.69 143.73Z" fill="#407BFF"/>
<path opacity="0.3" d="M247.69 143.73C246.003 143.802 244.324 143.459 242.8 142.73C242.529 142.564 242.218 142.476 241.9 142.476C241.582 142.476 241.271 142.564 241 142.73C239.473 143.46 237.791 143.803 236.1 143.73C234.856 143.743 233.616 143.575 232.42 143.23C232.179 143.149 231.922 143.127 231.671 143.164C231.42 143.202 231.181 143.3 230.975 143.448C230.769 143.597 230.601 143.792 230.485 144.019C230.37 144.245 230.31 144.496 230.31 144.75V151.15C230.31 160.06 234.47 163.3 240.95 168C241.226 168.2 241.559 168.308 241.9 168.308C242.241 168.308 242.574 168.2 242.85 168C249.33 163.3 253.49 160.06 253.49 151.15V144.75C253.489 144.495 253.427 144.245 253.311 144.019C253.194 143.792 253.025 143.597 252.818 143.449C252.611 143.3 252.372 143.203 252.12 143.165C251.869 143.127 251.612 143.149 251.37 143.23C250.174 143.576 248.935 143.744 247.69 143.73Z" fill="white"/>
<path opacity="0.2" d="M241 142.71C239.473 143.44 237.791 143.783 236.1 143.71C234.856 143.723 233.616 143.554 232.42 143.21C232.179 143.129 231.922 143.107 231.671 143.145C231.42 143.182 231.181 143.28 230.975 143.428C230.769 143.577 230.601 143.772 230.485 143.999C230.37 144.225 230.31 144.476 230.31 144.73V151.13C230.31 160.04 234.47 163.28 240.95 167.98C241.24 168.19 241.592 168.299 241.95 168.29V142.45C241.615 142.443 241.285 142.534 241 142.71Z" fill="white"/>
<path d="M251.19 149.41C247.292 150.937 243.82 153.383 241.07 156.54C239.152 155.126 236.904 154.228 234.54 153.93H234.23V155.46L234.4 155.52C237.029 156.469 239.295 158.217 240.88 160.52L241.13 160.88L241.34 160.49C243.639 156.218 247.14 152.713 251.41 150.41L251.56 150.34V149.34L251.19 149.41Z" fill="#263238"/>
<path d="M275.15 106.41H270.73C270.161 106.421 269.597 106.31 269.075 106.085C268.552 105.86 268.084 105.527 267.701 105.106C267.317 104.686 267.028 104.189 266.852 103.648C266.676 103.107 266.617 102.535 266.68 101.97L267.07 97.55C267.19 96.3479 267.747 95.2317 268.636 94.4132C269.524 93.5948 270.682 93.131 271.89 93.11H276.31C276.88 93.098 277.445 93.2077 277.969 93.4319C278.492 93.6561 278.962 93.9895 279.346 94.4098C279.731 94.8302 280.021 95.3278 280.198 95.8693C280.374 96.4109 280.433 96.9839 280.37 97.55L279.98 101.97C279.846 103.168 279.283 104.277 278.395 105.093C277.508 105.909 276.355 106.377 275.15 106.41Z" fill="#407BFF"/>
<path d="M276.99 97.53L276.03 96.48L273.61 98.7L271.59 96.48L270.44 97.53L272.47 99.75L270.06 101.97L271.02 103.03L273.43 100.81L275.46 103.03L276.6 101.97L274.57 99.75L276.99 97.53Z" fill="white"/>
<path d="M176.37 144.54C178.93 147.33 181.37 150.22 183.8 153.13C186.23 156.04 188.58 159.01 190.92 161.99C191.02 162.12 190.98 162.07 191 162.11C191.02 162.15 191 162.16 191 162.17C191.017 162.207 191.041 162.241 191.07 162.27C191.155 162.391 191.264 162.494 191.389 162.573C191.514 162.652 191.654 162.705 191.8 162.73C191.913 162.745 192.027 162.745 192.14 162.73C192.2 162.735 192.26 162.735 192.32 162.73H192.41C192.46 162.73 192.41 162.73 192.57 162.67L195.07 161.31C198.43 159.53 201.82 157.79 205.32 156.23L208.25 159.86C205.43 162.45 202.49 165.7 199.52 168.08L197.28 169.84C197.141 169.954 196.994 170.057 196.84 170.15C196.67 170.271 196.493 170.381 196.31 170.48C195.948 170.689 195.574 170.876 195.19 171.04C194.415 171.366 193.602 171.591 192.77 171.71C191.088 171.957 189.37 171.785 187.77 171.21C186.956 170.921 186.183 170.528 185.47 170.04C185.11 169.8 184.77 169.52 184.47 169.25C184.3 169.11 184.16 168.95 184 168.8L183.6 168.4C180.95 165.68 178.34 162.94 175.78 160.15C173.22 157.36 170.69 154.55 168.27 151.63L176.37 144.54Z" fill="#B55B52"/>
<path d="M204 158.43L206.33 150.94L212.47 154C212.47 154 211.57 159.46 207.11 160.41L204 158.43Z" fill="#B55B52"/>
<path d="M208.78 148.87L214.32 150.39L212.46 154L206.32 150.94L208.78 148.87Z" fill="#B55B52"/>
<path d="M144.09 146.58C143.43 149.76 142.61 152.91 141.76 156.05C140.91 159.19 139.98 162.3 139.01 165.41L138.65 166.58L138.47 167.16C138.446 167.244 138.412 167.324 138.37 167.4C138.256 167.722 138.192 168.059 138.18 168.4C138.159 169.127 138.361 169.842 138.76 170.45C138.957 170.717 139.174 170.967 139.41 171.2L140.24 172.11L141.88 173.94C142.95 175.18 144.03 176.42 145.05 177.72L141.56 181.72C140.12 180.9 138.74 180.01 137.36 179.13L135.31 177.77L134.31 177.08C133.97 176.84 133.69 176.68 133.14 176.23C131.183 174.563 129.833 172.295 129.3 169.78C129.032 168.498 128.967 167.182 129.11 165.88C129.11 165.56 129.21 165.2 129.26 164.88L129.37 164.28L129.58 163.08C130.14 159.87 130.74 156.67 131.41 153.49C132.08 150.31 132.8 147.14 133.65 144.01L144.09 146.58Z" fill="#B55B52"/>
<path d="M141.63 177.4L145.75 175.29L147.57 182.29C147.57 182.29 144.26 183.56 141.7 181.93L141.63 177.4Z" fill="#B55B52"/>
<path d="M151.45 173.04L151.64 179.47L147.03 182.49L145.43 175.42L151.45 173.04Z" fill="#B55B52"/>
<path d="M164.94 113.52C165.04 114.01 165.39 114.36 165.71 114.3C166.03 114.24 166.22 113.78 166.12 113.3C166.02 112.82 165.67 112.46 165.35 112.52C165.03 112.58 164.84 113.05 164.94 113.52Z" fill="#263238"/>
<path d="M165.34 114.37C166.24 115.765 167.327 117.03 168.57 118.13C168.28 118.442 167.926 118.686 167.533 118.847C167.139 119.008 166.715 119.08 166.29 119.06L165.34 114.37Z" fill="#A02724"/>
<path d="M162.57 111.14C162.512 111.139 162.456 111.122 162.408 111.09C162.36 111.059 162.322 111.014 162.299 110.961C162.276 110.908 162.268 110.85 162.277 110.793C162.286 110.736 162.311 110.683 162.35 110.64C162.663 110.286 163.055 110.011 163.495 109.837C163.935 109.663 164.409 109.596 164.88 109.64C164.919 109.647 164.956 109.662 164.989 109.683C165.022 109.705 165.05 109.733 165.072 109.765C165.095 109.798 165.11 109.834 165.118 109.873C165.127 109.911 165.127 109.951 165.12 109.99C165.114 110.028 165.1 110.065 165.08 110.098C165.059 110.131 165.032 110.16 165.001 110.182C164.969 110.204 164.933 110.22 164.895 110.228C164.857 110.237 164.818 110.237 164.78 110.23C164.407 110.194 164.031 110.248 163.683 110.387C163.335 110.527 163.025 110.747 162.78 111.03C162.727 111.092 162.651 111.132 162.57 111.14Z" fill="#263238"/>
<path d="M150.52 120.49C151.62 125.08 152.73 133.49 148.79 136.54C148.79 136.54 150.33 141.2 160.79 141.2C172.29 141.2 166.29 138.2 166.29 138.2C160.01 136.98 160.17 131.53 161.29 127.96L150.52 120.49Z" fill="#B55B52"/>
<path d="M147.56 137.39C146.88 136.12 146.12 134.66 147.68 134.2C149.4 133.7 160.43 132.77 163.68 133.71C162.68 135.48 164.37 137.71 164.37 137.71L147.56 137.39Z" fill="#263238"/>
<path d="M156.7 351.97H163.91L164.63 337.45H157.41L156.7 351.97Z" fill="#B55B52"/>
<path d="M110.91 349.97L118.22 350.35L122.66 336.05L115.35 335.66L110.91 349.97Z" fill="#B55B52"/>
<path d="M118 349.78L111.11 348.29C110.989 348.263 110.863 348.277 110.752 348.332C110.641 348.387 110.552 348.478 110.5 348.59L108.11 353.78C108.051 353.906 108.022 354.044 108.025 354.183C108.027 354.322 108.062 354.458 108.126 354.582C108.189 354.706 108.281 354.813 108.392 354.896C108.504 354.979 108.633 355.035 108.77 355.06C111.18 355.54 112.38 355.65 115.41 356.31C117.27 356.71 121.48 357.74 124.05 358.31C126.62 358.88 127.51 356.4 126.51 355.94C122.01 353.89 120.13 352.08 118.91 350.39C118.691 350.083 118.367 349.866 118 349.78Z" fill="#263238"/>
<path d="M163.53 351.24H156.68C156.556 351.242 156.436 351.285 156.34 351.363C156.244 351.441 156.177 351.549 156.15 351.67L154.91 357.24C154.878 357.375 154.877 357.515 154.908 357.65C154.938 357.786 154.999 357.912 155.086 358.02C155.173 358.128 155.283 358.215 155.409 358.274C155.534 358.333 155.671 358.362 155.81 358.36C158.28 358.36 161.81 358.17 164.96 358.17C168.59 358.17 171.72 358.37 175.96 358.37C178.53 358.37 179.25 355.77 178.17 355.53C173.26 354.46 169.26 354.34 165.02 351.73C164.577 351.435 164.062 351.265 163.53 351.24Z" fill="#263238"/>
<path d="M135.72 138.66C130.28 141.25 128.8 156.95 128.8 156.95L142.27 163.17C144.547 159.33 145.787 154.964 145.87 150.5C146.14 142.39 141.29 136.05 135.72 138.66Z" fill="#263238"/>
<path opacity="0.4" d="M143 148.34C140.57 152.12 140.8 157.96 141.64 162.89L142.24 163.17C144.515 159.329 145.755 154.963 145.84 150.5C145.84 150.02 145.84 149.5 145.84 149.07L143 148.34Z" fill="black"/>
<path d="M173.31 138.28C173.31 138.28 179.99 145.82 173.68 192.48H140.15C139.92 187.33 143.15 162.22 138.15 137.96C141.856 137.247 145.603 136.773 149.37 136.54C154.119 136.27 158.88 136.27 163.63 136.54C166.896 136.871 170.133 137.453 173.31 138.28Z" fill="#407BFF"/>
<path opacity="0.6" d="M173.31 138.28C173.31 138.28 179.99 145.82 173.68 192.48H140.15C139.92 187.33 143.15 162.22 138.15 137.96C141.856 137.247 145.603 136.773 149.37 136.54C154.119 136.27 158.88 136.27 163.63 136.54C166.896 136.871 170.133 137.453 173.31 138.28Z" fill="#FAFAFA"/>
<path opacity="0.2" d="M176.24 152.54L176.12 152.43L169.45 148.87C168.77 159.14 173.36 165.58 176.09 168.39C176.432 163.113 176.482 157.822 176.24 152.54Z" fill="black"/>
<path opacity="0.2" d="M164.63 337.45L164.26 344.93H157.04L157.41 337.45H164.63Z" fill="black"/>
<path opacity="0.2" d="M115.35 335.66L122.66 336.05L120.37 343.43L113.06 343.04L115.35 335.66Z" fill="black"/>
<path d="M148.2 115.83C149.81 121.83 150.45 125.44 154.2 127.94C159.78 131.7 166.72 127.38 166.94 121.01C167.13 115.28 164.47 106.41 158.02 105.2C156.596 104.918 155.123 105.006 153.743 105.456C152.363 105.905 151.121 106.701 150.136 107.768C149.151 108.834 148.455 110.135 148.116 111.546C147.778 112.958 147.806 114.433 148.2 115.83Z" fill="#B55B52"/>
<path d="M161.79 192.48C161.79 192.48 154.67 240.39 150.79 258.35C146.49 278.05 123.55 343.05 123.55 343.05L112.32 340.62C112.32 340.62 126.71 287.62 130.32 260.14C131.72 249.41 133.41 232.14 135.55 217.71C137.62 203.71 140.17 192.49 140.17 192.49L161.79 192.48Z" fill="#263238"/>
<path d="M126.24 339.3L124.14 343.36L111.52 340.62L112.58 336.83L126.24 339.3Z" fill="#407BFF"/>
<path opacity="0.6" d="M126.24 339.3L124.14 343.36L111.52 340.62L112.58 336.83L126.24 339.3Z" fill="white"/>
<path opacity="0.6" d="M157.29 209.55C149.06 211.16 149.93 241.85 150.92 257.63C153.3 246.47 156.77 225.01 159.14 209.77C158.567 209.488 157.914 209.41 157.29 209.55Z" fill="black"/>
<path d="M173.68 192.48C173.68 192.48 177.03 239.36 176.35 258.48C175.64 278.37 166.21 343.48 166.21 343.48H155.59C155.59 343.48 155.2 279.48 154.73 259.99C154.21 238.69 151.64 192.47 151.64 192.47L173.68 192.48Z" fill="#263238"/>
<path d="M168.25 339.26C168.3 339.26 167.65 343.67 167.65 343.67H154.73L154.38 339.73L168.25 339.26Z" fill="#407BFF"/>
<path opacity="0.6" d="M168.25 339.26C168.3 339.26 167.65 343.67 167.65 343.67H154.73L154.38 339.73L168.25 339.26Z" fill="white"/>
<path d="M169.4 147.05C169.4 159.63 176.09 164.81 176.09 164.81L187 154.19C184.418 149.874 181.477 145.783 178.21 141.96C171.9 134.73 169.4 138.97 169.4 147.05Z" fill="#263238"/>
<path opacity="0.2" d="M166.52 123.29C166.297 123.92 165.924 124.487 165.433 124.94C164.941 125.393 164.346 125.719 163.7 125.89C162.989 126.035 162.343 126.405 161.859 126.945C161.374 127.486 161.077 128.167 161.01 128.89C162.305 128.457 163.479 127.724 164.436 126.751C165.394 125.778 166.108 124.592 166.52 123.29Z" fill="black"/>
<path d="M163.7 103.88C165.94 101.05 162.49 100.88 162.49 100.88C163.39 97.51 159.35 99.32 159.35 99.32C156.93 95.98 155.56 100.05 155.56 100.05C153.05 97.22 152.56 101.84 152.56 101.84C150.04 98.25 148.76 103.43 148.76 103.43C146.44 99.7 145.02 104.55 145.02 104.55C140.23 102.84 142.5 107.82 142.5 107.82C138.42 107.93 141.7 111.1 141.7 111.1C136.8 111.1 141.12 113.91 141.12 113.91C137.23 116.46 142.12 117.15 142.12 117.15C138.95 122.15 144.4 120.27 144.4 120.27C142.19 125.19 147.08 123.02 147.08 123.02C146.77 127.76 149.5 126.47 150.82 125.59C151.07 126.59 151.55 127.59 152.43 127.67C154.14 127.9 154.43 124.67 154.43 124.67C154.43 124.67 156.01 125.91 157.34 125.24C158.67 124.57 158.17 122.88 158.17 122.88C158.459 123.096 158.809 123.213 159.17 123.213C159.53 123.213 159.881 123.096 160.17 122.88C160.74 122.44 160.74 119.26 160.02 118.14L162.62 117.14C162.62 117.14 164.55 116.87 163.69 114.32C163.171 112.854 163.125 111.263 163.56 109.77C166.5 108.39 164.08 106.77 164.08 106.77C167.49 104.58 163.7 103.88 163.7 103.88Z" fill="#263238"/>
<path d="M158.43 116.05C158.837 117.542 159.726 118.857 160.96 119.79C162.59 121.01 163.81 119.79 163.69 117.96C163.59 116.3 162.61 113.67 160.81 113.17C159.01 112.67 158 114.28 158.43 116.05Z" fill="#B55B52"/>
</g>
<defs>
<clipPath id="clip0_45_202">
<rect width="500" height="372.06" fill="white"/>
</clipPath>
</defs>
</svg>
